<svg
  xmlns="http://www.w3.org/2000/svg"
  viewBox="0 0 48 48"
>
  <path fill="#EA4335" d="M24 9.5c3.54 0 6.71 1.22 9.21 3.6l6.85-6.85C35.9 2.38 30.47 0 24 0 14.62 0 6.44 5.38 2.56 13.22l7.98 6.19C12.43 13.72 17.74 9.5 24 9.5z"/>
  <path fill="#4285F4" d="M46.98 24.55c0-1.57-.15-3.09-.38-4.55H24v9.02h12.95c-.58 3.02-2.26 5.58-4.78 7.29l7.73 6.01c4.51-4.18 7.08-10.36 7.08-17.77z"/>
  <path fill="#FBBC05" d="M10.54 28.59c-.48-1.45-.76-2.99-.76-4.59s.27-3.14.76-4.59l-7.98-6.19C.92 16.46 0 20.12 0 24s.92 7.54 2.56 10.78l7.98-6.19z"/>
  <path fill="#34A853" d="M24 48c6.48 0 11.93-2.13 15.91-5.81l-7.73-6.01c-2.15 1.45-4.92 2.3-8.18 2.3-6.26 0-11.57-4.22-13.46-9.91l-7.98 6.19C6.44 42.62 14.62 48 24 48z"/>
</svg>
